<svg
        xmlns="http://www.w3.org/2000/svg"
        width="16"
        height="16"
        fill="currentColor"
        stroke="none"
        aria-hidden="true"
>
    <svg xmlns="http://www.w3.org/2000/svg" fill="none" viewBox="0 0 16 16">
        <path fill="#2284E5" d="M0 8a8 8 0 1 1 16 0A8 8 0 0 1 0 8" />
        <path
                fill="#fff"
                fill-opacity="0.85"
                fill-rule="evenodd"
                d="M4.77 10.38a.69.69 0 0 0-.25.05c-.52.06-.54.56-.5 1.07H7c.04-.51.02-1-.5-1.07a.81.81 0 0 0-.24-.06c-.16-.03-.3-.05-.3-.29.03-.16.13-.26.24-.36.13-.13.27-.27.3-.55v.01C6.53 8.61 6.22 8 5.64 8h-.3c-.54 0-.87.63-.82 1.17.02.28.16.43.3.57.1.1.2.21.24.37 0 .24-.13.25-.3.27m5 0a.69.69 0 0 0-.26.05c-.52.06-.54.56-.5 1.07h2.99c.03-.51.01-1-.5-1.07a.81.81 0 0 0-.24-.06c-.17-.03-.3-.05-.3-.29.03-.16.13-.26.24-.36.13-.13.27-.27.3-.55v.01c.03-.57-.29-1.18-.86-1.18h-.3c-.54 0-.88.63-.83 1.17.03.28.17.43.3.57.11.1.21.21.25.37 0 .24-.14.25-.3.27m-2.5-4.5a.69.69 0 0 0-.24.05c-.52.06-.54.56-.5 1.07H9.5c.03-.51 0-1-.5-1.07a.8.8 0 0 0-.24-.06c-.17-.03-.31-.05-.3-.29.02-.16.13-.26.23-.36.13-.13.27-.27.3-.55v.01c.03-.57-.28-1.18-.85-1.18h-.3c-.55 0-.88.63-.83 1.17.02.28.17.43.3.57.1.1.21.21.24.37 0 .24-.13.25-.3.27m1.1 1.87a.35.35 0 1 0-.7 0v1.08l-.86.64a.35.35 0 0 0-.07.49.35.35 0 0 0 .5.07l.78-.6.79.6a.35.35 0 0 0 .49-.07.35.35 0 0 0-.07-.49l-.86-.65z"
                clip-rule="evenodd"
        />
    </svg>
</svg>
